<?xml version="1.0" encoding="utf-8"?>
<!-- Generator: Adobe Illustrator 19.0.1, SVG Export Plug-In . SVG Version: 6.00 Build 0)  -->
<!DOCTYPE svg PUBLIC "-//W3C//DTD SVG 1.1//EN" "http://www.w3.org/Graphics/SVG/1.1/DTD/svg11.dtd">
<svg version="1.1" id="_x36_4px" xmlns="http://www.w3.org/2000/svg" xmlns:xlink="http://www.w3.org/1999/xlink" x="0px" y="0px"
	 viewBox="-456 251 46 60" style="enable-background:new -456 251 46 60;" xml:space="preserve">
<g>
	<g>
		<path class="padlock" d="M-419,277c-1.7,0-3-1.3-3-3v-6c0-6.1-4.9-11-11-11s-11,4.9-11,11v6c0,1.7-1.3,3-3,3s-3-1.3-3-3v-6
			c0-9.4,7.6-17,17-17s17,7.6,17,17v6C-416,275.7-417.3,277-419,277z"/>
	</g>
	<g>
		<path class="padlock" d="M-416,311h-34c-3.3,0-6-2.7-6-6v-31c0-1.7,1.3-3,3-3h40c1.7,0,3,1.3,3,3v31C-410,308.3-412.7,311-416,311z
			 M-450,277v28h34v-28H-450z"/>
	</g>
	<g>
		<path class="padlock" d="M-433,292.5c-2.5,0-4.5-2-4.5-4.5s2-4.5,4.5-4.5s4.5,2,4.5,4.5S-430.5,292.5-433,292.5z M-433,287.5
			c-0.3,0-0.5,0.2-0.5,0.5s0.2,0.5,0.5,0.5s0.5-0.2,0.5-0.5S-432.7,287.5-433,287.5z"/>
	</g>
	<g>
		<path class="padlock" d="M-433,300.5c-1.4,0-2.5-1.1-2.5-2.5v-8c0-1.4,1.1-2.5,2.5-2.5s2.5,1.1,2.5,2.5v8
			C-430.5,299.4-431.6,300.5-433,300.5z"/>
	</g>
</g>
</svg>
