<?xml version="1.0" encoding="utf-8"?>
<!-- Generator: Adobe Illustrator 19.1.0, SVG Export Plug-In . SVG Version: 6.00 Build 0)  -->
<svg version="1.1" id="_x36_4px" xmlns="http://www.w3.org/2000/svg" xmlns:xlink="http://www.w3.org/1999/xlink" x="0px" y="0px"
	 viewBox="0 0 34 34" style="enable-background:new 0 0 34 34;" xml:space="preserve">
<path class="closeX" d="M33.1,5.1L21.2,17l11.9,11.9c0.5,0.5,0.9,1.3,0.9,2.1c0,1.7-1.3,3-3,3c-0.8,0-1.6-0.3-2.1-0.9L17,21.2L5.1,33.1
	C4.6,33.7,3.8,34,3,34c-1.7,0-3-1.3-3-3c0-0.8,0.3-1.6,0.9-2.1L12.8,17L0.9,5.1C0.3,4.6,0,3.8,0,3c0-1.7,1.3-3,3-3
	c0.8,0,1.6,0.3,2.1,0.9L17,12.8L28.9,0.9C29.4,0.3,30.2,0,31,0c1.7,0,3,1.3,3,3C34,3.8,33.7,4.6,33.1,5.1"/>
</svg>
