<?xml version="1.0" encoding="utf-8"?>
<!-- Generator: Adobe Illustrator 19.1.0, SVG Export Plug-In . SVG Version: 6.00 Build 0)  -->
<svg version="1.1" id="Layer_1" xmlns="http://www.w3.org/2000/svg" xmlns:xlink="http://www.w3.org/1999/xlink" x="0px" y="0px"
	 viewBox="0 35.5 792 541.1" style="enable-background:new 0 35.5 792 541.1;" xml:space="preserve">
<path class="white" d="M792,506.4c0,38.8-31.4,70.2-70.2,70.2H70.2C31.4,576.5,0,545.2,0,506.4V105.6c0-38.8,31.4-70.2,70.2-70.2
	h651.6c38.8,0,70.2,31.4,70.2,70.2V506.4z"/>
<path class="canadaRed" d="M202.3,35.5H70.2C31.4,35.5,0,66.8,0,105.6v400.7c0,38.8,31.4,70.2,70.2,70.2h132.1V35.5z"/>
<path class="canadaRed" d="M589.7,576.5h132.1c38.8,0,70.2-31.4,70.2-70.2V105.6c0-38.8-31.4-70.2-70.2-70.2H589.7V576.5L589.7,576.5z"/>
<path id="maple_leaf_2_" class="canadaRed" d="M396,154.3l-26.3,51.4c-3.1,5.5-8.2,5.1-13.7,2l-19.2-10.2l14.1,78.8
	c3.1,14.5-6.7,14.5-11.4,8.2l-33.3-38.8l-5.5,19.6c-0.8,2.7-3.5,5.5-7.4,4.7l-42-9.4l11.4,42c2.4,9.4,4.3,13.3-2.4,15.7l-14.9,7.4
	l72.1,61.2c2.7,2.4,4.3,6.7,3.1,10.2l-6.3,21.6c25.1-3.1,47.4-5.9,72.1-8.6c2.4,0,3.5,2,3.5,4.7l-0.4,51h12.2V415
	c0-2.7,0.8-4.7,3.1-4.7c25.1,3.1,47.4,5.9,72.1,8.6l-6.3-21.6c-1.2-3.9,0.4-7.8,3.1-10.2l72.5-61.6l-14.9-7.4
	c-6.7-2.4-4.7-6.3-2.4-15.7l11-42l-42,9.4c-3.9,0.8-6.7-2-7.5-4.7l-5.5-19.6l-33.3,38.8c-4.7,6.3-14.1,6.3-11.4-8.2l14.1-78.8
	l-19.2,10.2c-5.5,3.1-10.6,3.5-13.7-2L396,154.3z"/>
</svg>
