<?xml version="1.0" encoding="utf-8"?>
<!-- Generator: Adobe Illustrator 19.1.0, SVG Export Plug-In . SVG Version: 6.00 Build 0)  -->
<svg version="1.1" id="big_flags" xmlns="http://www.w3.org/2000/svg" xmlns:xlink="http://www.w3.org/1999/xlink" x="0px" y="0px"
	 viewBox="0 0 342.4 229.9" style="enable-background:new 0 0 342.4 229.9;" xml:space="preserve">
<g>
	<defs>
		<path id="SVGID_1_" d="M342.4,207.2c0,12.2-9.9,22.1-22.1,22.1H22.1C9.9,229.4,0,219.5,0,207.2V22.1C0,9.9,9.9,0,22.1,0h298.2
			c12.2,0,22.1,9.9,22.1,22.1V207.2z"/>
	</defs>
	<clipPath id="SVGID_2_">
		<use xlink:href="#SVGID_1_"  style="overflow:visible;"/>
	</clipPath>
	<g id="usa_2_" class="usaClipPath">
		<g>
			<polygon class="usaWhite" points="0,0 159.2,0 159.2,123.9 0,123.9 0,0 			"/>
			<rect x="0.5" y="0.6" class="usaWhite" width="341.9" height="228.8"/>
			<path class="usaBlue" d="M0,0h159.2v123.9H0V0L0,0z M20.3,9.5h-5.6l-1.6-4.8l-1.6,4.8H6l4.4,3.2l-1.6,5.6l4.4-3.6l4.4,3.2l-1.6-5.2
				L20.3,9.5L20.3,9.5z M151.7,111.6h-5.2l-2-4.8l-1.6,4.8h-5.2l4.4,3.2l-2,5.6l4.4-3.6l4.4,3.6l-1.6-5.6L151.7,111.6L151.7,111.6z
				 M125.5,111.6h-5.6l-1.6-4.8l-1.6,4.8h-5.6l4.4,3.2l-1.6,5.6l4.4-3.6l4.4,3.6l-1.6-5.6L125.5,111.6L125.5,111.6z M98.9,111.6
				h-5.2l-1.6-4.8l-1.6,4.8H85l4.4,3.2l-2,5.6l4.8-3.6l4.4,3.6l-1.6-5.6L98.9,111.6L98.9,111.6z M72.7,111.6h-5.2l-1.6-4.8l-2,4.8
				h-5.2l4.4,3.2l-2,5.6l4.8-3.6l4.4,3.6l-2-5.6L72.7,111.6L72.7,111.6z M46.5,111.6h-5.2l-2-4.8l-1.6,4.8h-5.2l4.4,3.2l-2,5.6
				l4.4-3.6l4.4,3.6l-1.6-5.6L46.5,111.6L46.5,111.6z M20.3,111.6h-5.6l-1.6-4.8l-1.6,4.8H6l4.4,3.2l-1.6,5.6l4.4-3.6l4.4,3.6
				l-1.6-5.6L20.3,111.6L20.3,111.6z M137.8,98.9h-5.2l-1.6-4.8l-1.6,4.8h-5.6l4.4,3.2l-2,5.6l4.8-3.6l4.4,3.2l-2-5.2L137.8,98.9
				L137.8,98.9z M111.6,98.9h-5.2l-2-4.8l-1.6,4.8h-5.2l4.4,3.2l-2,5.6l4.4-3.6l4.4,3.2l-1.6-5.2L111.6,98.9L111.6,98.9z M85.4,98.9
				h-5.6l-1.6-4.8l-1.6,4.8h-5.6l4.4,3.2l-1.6,5.6l4.4-3.6l4.4,3.2l-1.6-5.2L85.4,98.9L85.4,98.9z M59.2,98.9h-5.6L52,94.1l-1.6,4.8
				h-5.6l4.4,3.2l-1.6,5.6L52,104l4.4,3.2l-1.6-5.2L59.2,98.9L59.2,98.9z M32.6,98.9h-5.2l-1.6-4.8l-1.6,4.8h-5.6l4.4,3.2l-2,5.6
				l4.8-3.6l4.4,3.2l-2-5.2L32.6,98.9L32.6,98.9z M137.8,73.5h-5.2l-1.6-4.8l-1.6,4.8h-5.6l4.4,3.2l-2,5.2l4.8-3.2l4.4,3.2l-2-5.2
				L137.8,73.5L137.8,73.5z M111.6,73.5h-5.2l-2-4.8l-1.6,4.8h-5.2l4.4,3.2l-2,5.2l4.4-3.2l4.4,3.2l-1.6-5.2L111.6,73.5L111.6,73.5z
				 M85.4,73.5h-5.6l-1.6-4.8l-1.6,4.8h-5.6l4.4,3.2l-1.6,5.2l4.4-3.2l4.4,3.2L81,76.6L85.4,73.5L85.4,73.5z M59.2,73.5h-5.6
				L52,68.7l-1.6,4.8h-5.6l4.4,3.2l-1.6,5.2l4.4-3.2l4.4,3.2l-1.6-5.2L59.2,73.5L59.2,73.5z M32.6,73.5h-5.2l-1.6-4.8l-1.6,4.8h-5.6
				l4.4,3.2l-2,5.2l4.8-3.2l4.4,3.2l-2-5.2L32.6,73.5L32.6,73.5z M137.8,48h-5.2l-1.6-5.2l-1.6,5.2h-5.6l4.4,3.2l-2,5.2l4.8-3.2
				l4.4,3.2l-2-5.2L137.8,48L137.8,48z M111.6,48h-5.2l-2-5.2l-1.6,5.2h-5.2l4.4,3.2l-2,5.2l4.4-3.2l4.4,3.2l-1.6-5.2L111.6,48
				L111.6,48z M85.4,48h-5.6l-1.6-5.2L76.6,48h-5.6l4.4,3.2l-1.6,5.2l4.4-3.2l4.4,3.2L81,51.2L85.4,48L85.4,48z M59.2,48h-5.6
				L52,42.9L50.4,48h-5.6l4.4,3.2l-1.6,5.2l4.4-3.2l4.4,3.2l-1.6-5.2L59.2,48L59.2,48z M32.6,48h-5.2l-1.6-5.2L24.2,48h-5.6l4.4,3.2
				l-2,5.2l4.8-3.2l4.4,3.2l-2-5.2L32.6,48L32.6,48z M137.8,22.2h-5.2l-1.6-4.8l-1.6,4.8h-5.6l4.4,3.2l-2,5.5l4.8-3.6l4.4,3.6
				l-2-5.5L137.8,22.2L137.8,22.2z M111.6,22.2h-5.2l-2-4.8l-1.6,4.8h-5.2l4.4,3.2l-2,5.5l4.4-3.6l4.4,3.6l-1.6-5.5L111.6,22.2
				L111.6,22.2z M85.4,22.2h-5.6l-1.6-4.8l-1.6,4.8h-5.6l4.4,3.2L73.9,31l4.4-3.6l4.4,3.6L81,25.4L85.4,22.2L85.4,22.2z M59.2,22.2
				h-5.6L52,17.5l-1.6,4.8h-5.6l4.4,3.2L47.6,31l4.4-3.6l4.4,3.6l-1.6-5.5L59.2,22.2L59.2,22.2z M32.6,22.2h-5.2l-1.6-4.8l-1.6,4.8
				h-5.6l4.4,3.2L21,31l4.8-3.6l4.4,3.6l-2-5.5L32.6,22.2L32.6,22.2z M151.7,86.2h-5.2l-2-4.8l-1.6,4.8h-5.2l4.4,3.2l-2,5.2l4.4-3.2
				l4.4,3.2l-1.6-5.2L151.7,86.2L151.7,86.2z M125.5,86.2h-5.6l-1.6-4.8l-1.6,4.8h-5.6l4.4,3.2l-1.6,5.2l4.4-3.2l4.4,3.2l-1.6-5.2
				L125.5,86.2L125.5,86.2z M98.9,86.2h-5.2l-1.6-4.8l-1.6,4.8H85l4.4,3.2l-2,5.2l4.8-3.2l4.4,3.2l-1.6-5.2L98.9,86.2L98.9,86.2z
				 M72.7,86.2h-5.2l-1.6-4.8l-2,4.8h-5.2l4.4,3.2l-2,5.2l4.8-3.2l4.4,3.2l-2-5.2L72.7,86.2L72.7,86.2z M46.5,86.2h-5.2l-2-4.8
				l-1.6,4.8h-5.2l4.4,3.2l-2,5.2l4.4-3.2l4.4,3.2l-1.6-5.2L46.5,86.2L46.5,86.2z M20.3,86.2h-5.6l-1.6-4.8l-1.6,4.8H6l4.4,3.2
				l-1.6,5.2l4.4-3.2l4.4,3.2l-1.6-5.2L20.3,86.2L20.3,86.2z M151.7,60.8h-5.2l-2-5.2l-1.6,5.2h-5.2l4.4,3.2l-2,5.2l4.4-3.2l4.4,3.2
				l-1.6-5.2L151.7,60.8L151.7,60.8z M125.5,60.8h-5.6l-1.6-5.2l-1.6,5.2h-5.6l4.4,3.2l-1.6,5.2l4.4-3.2l4.4,3.2l-1.6-5.2
				L125.5,60.8L125.5,60.8z M98.9,60.8h-5.2l-1.6-5.2l-1.6,5.2H85l4.4,3.2l-2,5.2l4.8-3.2l4.4,3.2l-1.6-5.2L98.9,60.8L98.9,60.8z
				 M72.7,60.8h-5.2l-1.6-5.2l-2,5.2h-5.2l4.4,3.2l-2,5.2l4.8-3.2l4.4,3.2l-2-5.2L72.7,60.8L72.7,60.8z M46.5,60.8h-5.2l-2-5.2
				l-1.6,5.2h-5.2l4.4,3.2l-2,5.2l4.4-3.2l4.4,3.2l-1.6-5.2L46.5,60.8L46.5,60.8z M20.3,60.8h-5.6l-1.6-5.2l-1.6,5.2H6l4.4,3.2
				l-1.6,5.2l4.4-3.2l4.4,3.2l-1.6-5.2L20.3,60.8L20.3,60.8z M151.7,35.4h-5.2l-2-5.2l-1.6,5.2h-5.2l4.4,3.2l-2,5.2l4.4-3.2l4.4,3.2
				l-1.6-5.2L151.7,35.4L151.7,35.4z M125.5,35.4h-5.6l-1.6-5.2l-1.6,5.2h-5.6l4.4,3.2l-1.6,5.2l4.4-3.2l4.4,3.2l-1.6-5.2
				L125.5,35.4L125.5,35.4z M98.9,35.4h-5.2l-1.6-5.2l-1.6,5.2H85l4.4,3.2l-2,5.2l4.8-3.2l4.4,3.2l-1.6-5.2L98.9,35.4L98.9,35.4z
				 M72.7,35.4h-5.2l-1.6-5.2l-2,5.2h-5.2l4.4,3.2l-2,5.2l4.8-3.2l4.4,3.2l-2-5.2L72.7,35.4L72.7,35.4z M46.5,35.4h-5.2l-2-5.2
				l-1.6,5.2h-5.2l4.4,3.2l-2,5.2l4.4-3.2l4.4,3.2l-1.6-5.2L46.5,35.4L46.5,35.4z M20.3,35.4h-5.6l-1.6-5.2l-1.6,5.2H6l4.4,3.2
				l-1.6,5.2l4.4-3.2l4.4,3.2l-1.6-5.2L20.3,35.4L20.3,35.4z M151.7,9.5h-5.2l-2-4.8l-1.6,4.8h-5.2l4.4,3.2l-2,5.6l4.4-3.6l4.4,3.2
				l-1.6-5.2L151.7,9.5L151.7,9.5z M125.5,9.5h-5.6l-1.6-4.8l-1.6,4.8h-5.6l4.4,3.2l-1.6,5.6l4.4-3.6l4.4,3.2l-1.6-5.2L125.5,9.5
				L125.5,9.5z M98.9,9.5h-5.2l-1.6-4.8l-1.6,4.8H85l4.4,3.2l-2,5.6l4.8-3.6l4.4,3.2l-1.6-5.2L98.9,9.5L98.9,9.5z M72.7,9.5h-5.2
				l-1.6-4.8l-2,4.8h-5.2l4.4,3.2l-2,5.6l4.8-3.6l4.4,3.2l-2-5.2L72.7,9.5L72.7,9.5z M46.5,9.5h-5.2l-2-4.8l-1.6,4.8h-5.2l4.4,3.2
				l-2,5.6l4.4-3.6l4.4,3.2l-1.6-5.2L46.5,9.5z"/>
		</g>
		<g>
			<rect y="141.4" class="usaRed" width="342.4" height="17.9"/>
			<rect y="212.1" class="usaRed" width="342.4" height="17.9"/>
			<rect y="176.7" class="usaRed" width="342.4" height="17.9"/>
			<rect x="159.2" y="106" class="usaRed" width="183.1" height="17.9"/>
			<rect x="159.2" class="usaRed" width="183.1" height="17.9"/>
			<rect x="159.2" y="35.4" class="usaRed" width="183.1" height="17.9"/>
			<rect x="159.2" y="70.7" class="usaRed" width="183.1" height="17.9"/>
		</g>
	</g>
</g>
</svg>
