<?xml version="1.0" encoding="utf-8"?>
<!-- Generator: Adobe Illustrator 19.1.0, SVG Export Plug-In . SVG Version: 6.00 Build 0)  -->
<svg version="1.1" id="Isolation_Mode" xmlns="http://www.w3.org/2000/svg" xmlns:xlink="http://www.w3.org/1999/xlink" x="0px"
	 y="0px" viewBox="0 0 141.4 46.6" style="enable-background:new 0 0 141.4 46.6;" xml:space="preserve">
<g>
	<path class="logo" d="M127.4,8.2c-0.9-0.7-1.8-1.4-2.9-1.8c-1.2-0.4-2.3-0.8-3.6-1c-1.3-0.2-2.6-0.2-3.9-0.1c-1.4,0.1-2.7,0.4-4.1,1
		c-1.1,0.4-2.1,0.9-3.1,1.6c-1.1,0.6-2,1.4-3,2.2c-1,0.9-1.9,1.9-2.7,3c-0.8,1.2-1.6,2.4-2.2,3.8c-0.6,1.5-1.1,3-1.4,4.5
		c-0.3,1.6-0.4,3.3-0.3,5c0.1,1.7,0.4,3.4,1,5.1c0.6,1.7,1.3,3.3,2.4,4.9c2.6,4,6.2,6.8,10.2,8.5c3.8,1.6,7.9,2.1,11.7,1.4
		c3.5-0.6,6.7-2.1,9.4-4.2c2.4-2,4.4-4.4,5.7-7.3c0.1-0.2,0.1-0.4,0.2-0.6c0-0.2,0-0.4,0-0.6c0-0.2-0.1-0.4-0.2-0.6
		c-0.1-0.2-0.2-0.4-0.3-0.5c-0.1-0.2-0.3-0.3-0.4-0.4c-0.1-0.1-0.3-0.1-0.4-0.1c-0.1,0-0.3,0-0.4,0.1c-0.1,0.1-0.2,0.2-0.3,0.4
		c-1.3,2.3-3,4.3-5.1,5.8c-2.3,1.6-5,2.7-7.9,3c-3.1,0.3-6.3-0.2-9.4-1.6c-3.2-1.4-6-3.8-8.2-6.9c-0.8-1.2-1.5-2.4-1.9-3.7
		c-0.5-1.3-0.8-2.6-0.9-3.9c-0.1-1.3-0.1-2.6,0-3.9c0.2-1.2,0.5-2.5,0.9-3.7c0.3-0.8,0.6-1.5,1-2.2c0.4-0.7,0.8-1.3,1.2-1.9
		c0.4-0.6,0.9-1.1,1.4-1.6c0.5-0.5,1-1,1.5-1.4c0.3-0.2,0.5-0.4,0.8-0.6c0.3-0.2,0.6-0.4,0.9-0.6c0.3-0.2,0.6-0.3,0.9-0.5
		c0.3-0.2,0.6-0.3,0.9-0.4c0.3-0.1,0.7-0.3,1-0.4c0.3-0.1,0.7-0.2,1-0.3c0.3-0.1,0.7-0.1,1-0.2c0.3,0,0.7-0.1,1-0.1
		c-0.3,0.1-0.6,0.2-0.8,0.3c-0.3,0.1-0.6,0.3-0.8,0.4c-0.3,0.2-0.5,0.3-0.8,0.5c-0.3,0.2-0.5,0.4-0.8,0.6c-0.2,0.1-0.3,0.3-0.5,0.5
		c-0.2,0.2-0.3,0.3-0.5,0.5c-0.2,0.2-0.3,0.4-0.4,0.5c-0.1,0.2-0.3,0.4-0.4,0.6c-1.1,1.7-1.7,3.5-2,5.5c-0.2,2.1,0,4.3,0.7,6.4
		c0.7,2.2,2,4.2,3.7,5.9c1.7,1.7,3.7,3,6,3.8c1.3,0.4,2.7,0.7,4,0.8c1.3,0.1,2.5,0,3.7-0.2c1.2-0.2,2.2-0.6,3.3-1.1
		c1-0.5,1.9-1.1,2.7-1.8c0.8-0.7,1.5-1.4,2.1-2.2c0.6-0.8,1-1.6,1.4-2.5c0.4-0.8,0.6-1.7,0.8-2.6c0.2-0.9,0.3-1.8,0.3-2.7
		c0.1-2.2-0.2-4.3-0.8-6.3c-0.6-1.9-1.4-3.6-2.4-5.2c-1-1.6-2.2-3-3.5-4.4c-1.4-1.3-2.9-2.5-4.7-3.5c-0.1-0.1-0.2-0.1-0.3-0.1
		c-0.1,0-0.2,0-0.3,0c-0.1,0-0.2,0-0.3,0.1c-0.1,0-0.1,0.1-0.2,0.2c0,0.1,0,0.2,0,0.3c0,0.1,0,0.2,0.1,0.3c0.1,0.1,0.1,0.2,0.2,0.3
		c0.1,0.1,0.2,0.2,0.3,0.2c1.6,0.9,3,2,4.2,3.1c1.2,1.2,2.3,2.5,3.2,3.9c0.9,1.5,1.6,3,2,4.7c0.5,1.7,0.7,3.6,0.6,5.5
		c-0.1,0.8-0.2,1.5-0.4,2.2c-0.2,0.7-0.5,1.5-0.8,2.1c-0.3,0.7-0.8,1.4-1.3,2c-0.5,0.6-1.1,1.2-1.8,1.7c-0.7,0.5-1.5,1-2.3,1.3
		c-0.8,0.4-1.7,0.6-2.7,0.7c-1,0.1-2,0.2-3,0.1c-1-0.1-2.1-0.3-3.1-0.7c-0.4-0.1-0.8-0.3-1.2-0.5c-0.4-0.2-0.8-0.4-1.2-0.6
		c-0.4-0.2-0.7-0.5-1.1-0.8c-0.3-0.3-0.7-0.6-1-0.9c0.7,0.3,1.3,0.6,2,0.8c0.7,0.2,1.4,0.3,2.1,0.4c0.7,0.1,1.4,0.1,2,0
		c0.7-0.1,1.3-0.2,1.9-0.3c0.9-0.2,1.8-0.6,2.6-1c0.8-0.4,1.5-0.9,2.1-1.5c0.6-0.5,1.2-1.1,1.6-1.8c0.5-0.6,0.8-1.3,1.1-2
		c0.3-0.7,0.5-1.4,0.7-2.1c0.1-0.7,0.2-1.4,0.2-2.1c0-0.7,0-1.4-0.2-2.1c-0.1-0.7-0.3-1.4-0.5-2c-0.6-1.7-1.4-3.2-2.4-4.5
		c-1-1.3-2.1-2.5-3.4-3.6c-1.3-1-2.8-1.9-4.4-2.7c-1.6-0.7-3.4-1.3-5.4-1.5c-2.5-0.4-5.1-0.3-7.6,0c-2.7,0.4-5.5,1.3-8,2.6
		c-2.9,1.5-5.5,3.5-7.8,6.1c-2.5,2.9-4.5,6.5-5.4,10.6c-0.1,0.3,0,0.5,0,0.8c0.1,0.2,0.3,0.4,0.5,0.6c0.2,0.2,0.5,0.3,0.8,0.4
		c0.3,0.1,0.7,0.1,1.1,0c0.4,0,0.8-0.1,1.1-0.3c0.4-0.1,0.7-0.3,1-0.5c0.3-0.2,0.5-0.4,0.7-0.7c0.2-0.2,0.3-0.5,0.3-0.8
		c0.6-3.4,2-6.4,3.9-8.9c1.7-2.3,3.9-4.1,6.2-5.4c2.1-1.2,4.4-2.1,6.8-2.5c2.2-0.4,4.4-0.5,6.6-0.2c1.7,0.2,3.2,0.6,4.7,1.3
		c1.4,0.6,2.7,1.4,3.8,2.3c1.1,0.9,2.1,2,3,3.1c0.8,1.2,1.5,2.5,2,4c0.2,0.6,0.3,1.1,0.4,1.7c0.1,0.6,0.1,1.1,0.1,1.7
		c0,0.6-0.1,1.1-0.3,1.7c-0.1,0.6-0.4,1.1-0.6,1.7c-0.3,0.6-0.6,1.1-1,1.6c-0.4,0.5-0.9,0.9-1.4,1.3c-0.5,0.4-1.1,0.8-1.7,1
		c-0.6,0.3-1.3,0.5-2.1,0.7c-0.6,0.1-1.2,0.2-1.8,0.2c-0.6,0-1.2-0.1-1.8-0.2c-0.6-0.1-1.2-0.4-1.8-0.6c-0.6-0.3-1.2-0.6-1.7-1
		c-0.5-0.4-1-0.9-1.5-1.4c-0.5-0.5-0.8-1-1.2-1.6c-0.3-0.6-0.6-1.2-0.8-1.8c-0.2-0.6-0.2-1.5-0.2-2.1c0-0.4,0.2-1.1,0.3-1.4
		c0.1-0.3,0.2-0.5,0.3-0.8c0.1-0.3,0.3-0.5,0.4-0.7c0.6-1,1.3-1.8,2.2-2.4c0.8-0.6,1.7-1,2.7-1.2c0.9-0.2,1.9-0.3,2.9-0.1
		c0.9,0.1,1.7,0.4,2.5,0.8c0.1,0.1,0.3,0.1,0.4,0.2c0.1,0,0.2,0,0.4,0c0.1,0,0.2-0.1,0.3-0.1c0.1-0.1,0.2-0.1,0.2-0.2
		c0.1-0.1,0.1-0.2,0.1-0.3c0-0.1,0-0.2,0-0.3c0-0.1-0.1-0.2-0.2-0.3C127.6,8.4,127.5,8.3,127.4,8.2"/>
</g>
<g>
	<path class="logo" d="M17.2,44.9L16,36.9c-0.3-1.6-0.4-2.9-0.5-4h-0.1c-0.2,1.1-0.5,2.3-0.9,3.6l-2.7,8.5H8.5l-2.6-7.9
		c-0.5-1.4-0.9-2.9-1.1-4.3H4.8c-0.1,1.5-0.3,2.8-0.5,4.3l-1,7.8H0l2.6-17h3.8l2.8,8.7c0.4,1.2,0.7,2.4,0.9,3.6h0.1
		c0.3-1.3,0.5-2.3,1-3.5l2.9-8.8H18l2.6,17H17.2"/>
	<path class="logo" d="M31.7,38.6c0,2.5-1.2,3.8-2.8,3.8c-1.9,0-2.8-1.3-2.8-3.9c0-2.6,1.4-3.7,2.8-3.7
		C30.9,34.9,31.7,36.2,31.7,38.6 M35.1,38.5c0-4.3-2.3-6.3-5.8-6.3c-3.8,0-6.4,2.8-6.4,6.7c0,4.5,2.3,6.3,5.9,6.3
		C32.4,45.2,35.1,42.4,35.1,38.5"/>
	<path class="logo" d="M60.6,37H56c0.2-1.5,1.1-2.5,2.4-2.5C59.8,34.5,60.7,35.5,60.6,37 M63.8,37.8c0-3.1-1.6-5.6-5.3-5.6
		c-3.8,0-5.9,2.8-5.9,6.6c0,4.4,2.2,6.4,6.2,6.4c1.6,0,3.2-0.3,4.5-0.8l-0.3-2.5c-1.1,0.5-2.4,0.8-3.7,0.8c-2.3,0-3.5-1.1-3.5-3.5
		h7.8C63.8,38.7,63.8,38.2,63.8,37.8"/>
	<path class="logo" d="M66.5,34.7c-0.2-0.3-0.3-0.7-0.3-1c0-0.4,0.1-0.7,0.3-1c1.5-0.2,3.3-0.2,4.9-0.2c0,0.7-0.1,1.7-0.2,2.5h0
		c0.6-1.6,1.8-3,4-2.8L75,35.3c-2.3-0.5-3.5,1-3.5,4.5v5.1h-3.2v-10C67.8,34.8,67.1,34.7,66.5,34.7"/>
	<path class="logo" d="M83,28.9c0-1.1-0.9-1.9-2-1.9c-1.1,0-2,0.9-2,1.9c0,1.1,0.9,2,2,2C82.1,30.8,83,30,83,28.9"/>
	<path class="logo" d="M88.9,45.2c-0.9,0-1.8-0.1-2.6-0.2l0.1-2.6c0.8,0.2,1.7,0.4,2.7,0.4c1.2,0,2-0.5,2-1.3c0-2.2-5.1-1-5.1-5.2
		c0-2.2,1.8-4,5.3-4c0.7,0,1.5,0.1,2.3,0.2l-0.1,2.5c-0.7-0.2-1.5-0.3-2.3-0.3c-1.3,0-1.9,0.5-1.9,1.3c0,2,5.1,1.1,5.1,5.2
		C94.5,43.5,92.4,45.2,88.9,45.2"/>
	<path class="logo" d="M41.7,32.4c0,0.6-0.1,1.6-0.2,2.2l0,0c0.8-1.5,2.2-2.5,4.3-2.5c2.8,0,3.7,1.8,3.7,4v8.8h-3.2v-8
		c0-1.3-0.4-2.1-1.5-2.1c-1.6,0-2.9,1.9-2.9,4v6h-3.2v-10c-0.5-0.1-1.2-0.2-1.9-0.2c-0.2-0.3-0.3-0.7-0.3-1c0-0.4,0.1-0.7,0.3-1
		C38.3,32.4,40.1,32.4,41.7,32.4"/>
	<path class="logo" d="M82.6,32.4c-1.6,0-3.5,0-5.1,0.2c-0.2,0.3-0.3,0.7-0.3,1c0,0.4,0.1,0.7,0.3,1c0.7,0.1,1.4,0.1,1.9,0.2v10h3.2
		V32.4"/>
</g>
<g>
	<path class="logo" d="M141.4,1.9c0,1.1-0.9,2-2,2c-1.1,0-2-0.9-2-2c0-1.1,0.9-1.9,2-1.9C140.5,0,141.4,0.9,141.4,1.9z M137.9,1.9
		c0,0.9,0.6,1.6,1.5,1.6c0.9,0,1.5-0.7,1.5-1.5c0-0.9-0.6-1.6-1.5-1.6C138.5,0.4,137.9,1.1,137.9,1.9z M139.1,3h-0.5V1
		c0.2,0,0.4-0.1,0.7-0.1c0.4,0,0.5,0.1,0.7,0.1c0.1,0.1,0.2,0.2,0.2,0.4c0,0.2-0.2,0.4-0.4,0.5v0c0.2,0.1,0.3,0.2,0.4,0.5
		c0.1,0.3,0.1,0.4,0.1,0.5h-0.5c-0.1-0.1-0.1-0.2-0.2-0.5c0-0.2-0.2-0.3-0.4-0.3h-0.2V3z M139.1,1.9h0.2c0.2,0,0.5-0.1,0.5-0.3
		c0-0.2-0.1-0.3-0.4-0.3c-0.1,0-0.2,0-0.2,0V1.9z"/>
</g>
</svg>
