<?xml version="1.0" encoding="utf-8"?>
<!-- Generator: Adobe Illustrator 19.1.0, SVG Export Plug-In . SVG Version: 6.00 Build 0)  -->
<svg version="1.1" id="_x36_4px" xmlns="http://www.w3.org/2000/svg" xmlns:xlink="http://www.w3.org/1999/xlink" x="0px" y="0px"
	 viewBox="0 0 64 38" style="enable-background:new 0 0 64 38;" xml:space="preserve">
<path class="hamburger" d="M61,22H3c-1.7,0-3-1.3-3-3c0-1.7,1.3-3,3-3h58c1.7,0,3,1.3,3,3C64,20.7,62.7,22,61,22 M61,6H3C1.3,6,0,4.7,0,3
	c0-1.7,1.3-3,3-3h58c1.7,0,3,1.3,3,3C64,4.7,62.7,6,61,6 M3,32h58c1.7,0,3,1.3,3,3c0,1.7-1.3,3-3,3H3c-1.7,0-3-1.3-3-3
	C0,33.3,1.3,32,3,32"/>
</svg>
