<?xml version="1.0" encoding="utf-8"?>
<!-- Generator: Adobe Illustrator 19.1.0, SVG Export Plug-In . SVG Version: 6.00 Build 0)  -->
<svg version="1.1" id="_x36_4px" xmlns="http://www.w3.org/2000/svg" xmlns:xlink="http://www.w3.org/1999/xlink" x="0px" y="0px"
	 viewBox="0 0 42 42" style="enable-background:new 0 0 42 42;" xml:space="preserve">
<path class="circle" d="M0,20.3C0.4,8.7,10.1-0.4,21.7,0C33.3,0.4,42.4,10.1,42,21.7C41.6,33.3,31.9,42.4,20.3,42
	C8.7,41.6-0.4,31.9,0,20.3z"/>
<g id="telephone_1_">
	<path class="phone" d="M28.4,23.8c-0.5-0.5-1.3-0.5-1.8,0l-2.1,2.1c-0.8,0.8-3.7-0.1-6-2.4c-2.3-2.3-3.2-5.2-2.4-6l2.1-2.1
		c0.5-0.5,0.5-1.3,0-1.8l-3.9-3.9c-0.5-0.5-1.3-0.5-1.8,0L10.3,12c-2.4,2.4,0.1,8.8,5.5,14.2c5.5,5.5,11.8,7.9,14.2,5.5l2.2-2.2
		c0.5-0.5,0.5-1.3,0-1.8L28.4,23.8"/>
</g>
</svg>
