<?xml version="1.0" encoding="utf-8"?>
<!-- Generator: Adobe Illustrator 19.1.0, SVG Export Plug-In . SVG Version: 6.00 Build 0)  -->
<svg version="1.1" id="_x36_4px" xmlns="http://www.w3.org/2000/svg" xmlns:xlink="http://www.w3.org/1999/xlink" x="0px" y="0px"
	 viewBox="0 0 43.6 43.6" style="enable-background:new 0 0 43.6 43.6;" xml:space="preserve">
<g id="telephone_1_">
	<path class="phone" d="M35.6,27c-0.9-0.9-2.4-0.9-3.4,0l-3.9,3.9c-1.5,1.5-6.9-0.2-11.2-4.5c-4.3-4.3-6-9.7-4.5-11.2l3.9-3.9
		c0.9-0.9,0.9-2.4,0-3.4L9.3,0.7c-0.9-0.9-2.4-0.9-3.4,0L1.7,4.9c-4.5,4.5,0.2,16.4,10.4,26.6c10.2,10.2,22.1,14.8,26.6,10.4
		l4.2-4.2c0.9-0.9,0.9-2.4,0-3.4L35.6,27"/>
</g>
</svg>
