<?xml version="1.0" encoding="utf-8"?>
<!-- Generator: Adobe Illustrator 19.1.0, SVG Export Plug-In . SVG Version: 6.00 Build 0)  -->
<svg version="1.1" id="_x36_4px" xmlns="http://www.w3.org/2000/svg" xmlns:xlink="http://www.w3.org/1999/xlink" x="0px" y="0px"
	 viewBox="0 0 45 45" style="enable-background:new 0 0 45 45;" xml:space="preserve">
<path class="magnifyingGlass" d="M30.7,18.4c0,6.7-5.5,12.1-12.2,12.1c-6.7,0-12.3-5.4-12.3-12.1c0-6.7,5.5-12.2,12.3-12.2
	C25.2,6.2,30.7,11.7,30.7,18.4L30.7,18.4z M33.5,28.7c2.1-3,3.2-6.7,3.2-10.3C36.7,8.3,28.6,0,18.5,0S0,8.3,0,18.4
	c0,10.1,8.3,18.2,18.5,18.2c3.7,0,7.4-1.2,10.4-3.2L40.2,45l4.8-4.8L33.5,28.7L33.5,28.7z"/>
</svg>
