<?xml version="1.0" encoding="utf-8"?>
<!-- Generator: Adobe Illustrator 19.1.0, SVG Export Plug-In . SVG Version: 6.00 Build 0)  -->
<svg version="1.1" id="_x36_4px" xmlns="http://www.w3.org/2000/svg" xmlns:xlink="http://www.w3.org/1999/xlink" x="0px" y="0px"
	 viewBox="0 0 90.8 90.5" style="enable-background:new 0 0 90.8 90.5;" xml:space="preserve">
<path class="twitterTvTube" d="M45.5,0c35.6,0,45.2,9.4,45.2,45.8c0,35.6-9.9,44.7-45.5,44.7C8.9,90.5,0,81.1,0,45.5C0,9.1,9.1,0,45.5,0z"/>
<path class="twitterLogo" d="M66.2,32.3c-1.5,0.7-3.2,1.1-4.9,1.3c1.8-1.1,3.1-2.7,3.7-4.7c-1.7,1-3.5,1.7-5.4,2.1c-1.6-1.7-3.8-2.7-6.2-2.7
	c-4.7,0-8.5,3.8-8.5,8.5c0,0.7,0.1,1.3,0.2,1.9C38,38.4,31.7,35,27.5,29.9c-0.7,1.3-1.2,2.7-1.2,4.3c0,2.9,1.5,5.5,3.8,7.1
	c-1.4,0-2.7-0.4-3.9-1.1c0,0,0,0.1,0,0.1c0,4.1,2.9,7.5,6.8,8.3c-0.7,0.2-1.5,0.3-2.2,0.3c-0.5,0-1.1-0.1-1.6-0.2
	c1.1,3.4,4.2,5.8,8,5.9c-2.9,2.3-6.6,3.6-10.6,3.6c-0.7,0-1.4,0-2-0.1c3.8,2.4,8.3,3.8,13.1,3.8c15.7,0,24.3-12.9,24.3-24.2
	c0-0.4,0-0.7,0-1.1C63.6,35.5,65,34,66.2,32.3L66.2,32.3z"/>
</svg>
