<?xml version="1.0" encoding="utf-8"?>
<!-- Generator: Adobe Illustrator 19.1.0, SVG Export Plug-In . SVG Version: 6.00 Build 0)  -->
<svg version="1.1" id="_x36_4px" xmlns="http://www.w3.org/2000/svg" xmlns:xlink="http://www.w3.org/1999/xlink" x="0px" y="0px"
	 viewBox="-966 970.3 41.6 36.8" style="enable-background:new -966 970.3 41.6 36.8;" xml:space="preserve">
<path class="logo" d="M-934.5,1006.7v-13.8c0-3.3-1.5-5.5-4.3-5.5c-2.2,0-3.6,1.5-4.2,2.9c-0.2,0.5-0.1,1.2-0.1,1.9v14.4h-7.2v-17.2
	c0-3.2-1-6.7-1.4-7.2h7.2v2.9h0.4c1-1.8,3.6-4.1,7.8-4.1c5.2,0,9.1,3.5,9.1,11v14.7C-927.2,1006.7-934.5,1006.7-934.5,1006.7z
	 M-963.3,982.2h8.6v24.5h-8.6V982.2z M-959.1,978.5c-2.5,0-4.1-1.8-4.1-3.9c0-2.2,1.7-3.9,4.2-3.9s4.1,1.7,4.1,3.9
	C-954.9,976.8-956.5,978.5-959.1,978.5z"/>
</svg>
