<?xml version="1.0" encoding="utf-8"?>
<!-- Generator: Adobe Illustrator 19.1.0, SVG Export Plug-In . SVG Version: 6.00 Build 0)  -->
<svg version="1.1" id="_x36_4px" xmlns="http://www.w3.org/2000/svg" xmlns:xlink="http://www.w3.org/1999/xlink" x="0px" y="0px"
	 viewBox="0 0 90.8 90.5" style="enable-background:new 0 0 90.8 90.5;" xml:space="preserve">
<path class="facebookTvTube" d="M45.5,0c35.6,0,45.2,9.4,45.2,45.8c0,35.6-9.9,44.7-45.5,44.7C8.9,90.5,0,81.1,0,45.5C0,9.1,9.1,0,45.5,0z"/>
<path class="facebookLogo" d="M40.7,47.7v16l8,0.1l0-16.1l5,0l1.4-6.9h-6.3v-5.1c0-0.7,0.3-1.9,1.4-1.9l3.7,0.1l-0.1-6.9l-7.3,0
	c-2.5,0-5.6,3.2-5.6,6.5l-0.1,7.4l-4.9,0.1v6.9L40.7,47.7z"/>
</svg>
