<?xml version="1.0" encoding="utf-8"?>
<!-- Generator: Adobe Illustrator 19.1.0, SVG Export Plug-In . SVG Version: 6.00 Build 0)  -->
<svg version="1.1" id="_x36_4px" xmlns="http://www.w3.org/2000/svg" xmlns:xlink="http://www.w3.org/1999/xlink" x="0px" y="0px"
	 viewBox="0 0 90.8 90.5" style="enable-background:new 0 0 90.8 90.5;" xml:space="preserve">
<path class="linkedinTvTube" d="M45.5,0c35.6,0,45.2,9.4,45.2,45.8c0,35.6-9.9,44.7-45.5,44.7C8.9,90.5,0,81.1,0,45.5C0,9.1,9.1,0,45.5,0z"/>
<path class="linkedinLogo" d="M56.2,63.3V49.5c0-3.3-1.5-5.5-4.3-5.5c-2.2,0-3.6,1.5-4.2,2.9c-0.2,0.5-0.1,1.2-0.1,1.9v14.4h-7.2V46
	c0-3.2-1-6.7-1.4-7.2h7.2v2.9l0.4,0c1-1.8,3.6-4.1,7.8-4.1c5.2,0,9.1,3.5,9.1,11v14.7H56.2z M27.4,38.8H36v24.5l-8.6,0V38.8z
	 M31.6,35.1c-2.5,0-4.1-1.8-4.1-3.9c0-2.2,1.7-3.9,4.2-3.9c2.5,0,4.1,1.7,4.1,3.9C35.8,33.4,34.2,35.1,31.6,35.1z"/>
</svg>
