<?xml version="1.0" encoding="utf-8"?>
<!-- Generator: Adobe Illustrator 19.1.0, SVG Export Plug-In . SVG Version: 6.00 Build 0)  -->
<svg version="1.1" id="Layer_1" xmlns="http://www.w3.org/2000/svg" xmlns:xlink="http://www.w3.org/1999/xlink" x="0px" y="0px"
	 viewBox="18 104 64.8 64" style="enable-background:new 18 104 64.8 64;" xml:space="preserve">
<g>
	<path class="arrow" d="M37.4,153.6c1.1,0,2.2-0.4,3.1-1.3L59,133.8l0,7.2c0,2.4,1.9,4.5,4.3,4.5c0,0,0,0,0,0c2.4,0,4.3-2,4.3-4.4l0.1-17.7
		c0,0,0,0,0,0c0,0,0,0,0,0c0-0.2,0-0.3,0-0.4c0-0.1,0-0.3,0-0.4c0-0.2-0.1-0.3-0.1-0.5c0-0.1-0.1-0.2-0.1-0.4
		c-0.1-0.2-0.2-0.3-0.2-0.4c-0.1-0.1-0.1-0.2-0.2-0.3c-0.1-0.1-0.2-0.2-0.3-0.4c-0.1-0.1-0.1-0.2-0.2-0.3c-0.1-0.1-0.2-0.2-0.4-0.3
		c-0.1-0.1-0.2-0.2-0.3-0.2c-0.1-0.1-0.3-0.1-0.4-0.2c-0.1-0.1-0.2-0.1-0.3-0.2c-0.1-0.1-0.3-0.1-0.4-0.1c-0.1,0-0.2-0.1-0.4-0.1
		c-0.2,0-0.3,0.1-0.5,0.1c-0.1,0-0.3,0.1-0.4,0.1c0,0,0,0,0,0c0,0,0,0,0,0l-17.6-0.1c-2.4,0-4.3,1.9-4.3,4.3c0,2.4,1.9,4.3,4.3,4.3
		c0,0,0,0,0,0l7.1,0l-18.6,18.6c-1.7,1.7-1.7,4.4,0,6.1C35.1,153.2,36.3,153.6,37.4,153.6z"/>
	<path class="square" d="M82.8,108.3c0-2.4-1.9-4.3-4.3-4.3H22.3c-2.4,0-4.3,1.9-4.3,4.3v55.3c0,2.4,1.9,4.3,4.3,4.3h56.2c2.4,0,4.3-1.9,4.3-4.3
		V108.3z M74.3,159.5H26.5v-47h47.8V159.5z"/>
</g>
</svg>
